<svg xmlns="http://www.w3.org/2000/svg" viewBox="0 0 24 24" fill="none">
  <ellipse cx="12" cy="17.75" rx="9" ry="2.05" fill="#ff9f43" opacity="0.25" />
  <ellipse
    cx="12"
    cy="17.75"
    rx="8.2"
    ry="1.45"
    stroke="#ff9f43"
    stroke-width="1.35"
  />
  <path
    d="M18.2 17.55a6 6 0 00-12.4 0 .8.8 0 001.62.08 4.4 4.4 0 019.14 0 .8.8 0 001.63-.07z"
    fill="#ff9f43"
  />
  <path
    d="M5.85 17.95c.58-6.8 11.73-7.32 13.62-1 .22.73-.93 1.15-1.14.43-1.5-5-10.94-5.43-11.54.57-.08.93-1.3.93-1.22 0h.28z"
    fill="#ff9f43"
  />
  <rect x="11" y="4" width="2" height="3.2" rx="0.4" fill="#ff9f43" />
</svg>
